<svg width="654" height="123" viewBox="0 0 654 123" fill="none" xmlns="http://www.w3.org/2000/svg">
<g opacity="0.07" filter="url(#filter0_d)">
<path d="M31.4 108.5C23.5 108.5 17.45 106.25 13.25 101.75C9.15 97.25 7.1 90.9 7.1 82.7V26.3C7.1 18.1 9.15 11.75 13.25 7.25C17.45 2.75 23.5 0.499994 31.4 0.499994C39.3 0.499994 45.3 2.75 49.4 7.25C53.6 11.75 55.7 18.1 55.7 26.3V37.4H40.1V25.25C40.1 18.75 37.35 15.5 31.85 15.5C26.35 15.5 23.6 18.75 23.6 25.25V83.9C23.6 90.3 26.35 93.5 31.85 93.5C37.35 93.5 40.1 90.3 40.1 83.9V67.85H55.7V82.7C55.7 90.9 53.6 97.25 49.4 101.75C45.3 106.25 39.3 108.5 31.4 108.5ZM98.5719 1.99999H123.022C131.522 1.99999 137.722 3.99999 141.622 8C145.522 11.9 147.472 17.95 147.472 26.15V32.6C147.472 43.5 143.872 50.4 136.672 53.3V53.6C140.672 54.8 143.472 57.25 145.072 60.95C146.772 64.65 147.622 69.6 147.622 75.8V94.25C147.622 97.25 147.722 99.7 147.922 101.6C148.122 103.4 148.622 105.2 149.422 107H132.622C132.022 105.3 131.622 103.7 131.422 102.2C131.222 100.7 131.122 98 131.122 94.1V74.9C131.122 70.1 130.322 66.75 128.722 64.85C127.222 62.95 124.572 62 120.772 62H115.072V107H98.5719V1.99999ZM121.072 47C124.372 47 126.822 46.15 128.422 44.45C130.122 42.75 130.972 39.9 130.972 35.9V27.8C130.972 24 130.272 21.25 128.872 19.55C127.572 17.85 125.472 17 122.572 17H115.072V47H121.072ZM192.07 1.99999H237.07V17H208.57V44.75H231.22V59.75H208.57V92H237.07V107H192.07V1.99999ZM292.312 1.99999H314.662L331.762 107H315.262L312.262 86.15V86.45H293.512L290.512 107H275.212L292.312 1.99999ZM310.312 72.2L302.962 20.3H302.662L295.462 72.2H310.312ZM378.782 17H361.532V1.99999H412.532V17H395.282V107H378.782V17ZM453.521 1.99999H470.021V107H453.521V1.99999ZM511.029 1.99999H527.679L538.479 83.45H538.779L549.579 1.99999H564.729L548.829 107H526.929L511.029 1.99999ZM605.654 1.99999H650.654V17H622.154V44.75H644.804V59.75H622.154V92H650.654V107H605.654V1.99999Z" fill="#2F3133"/>
</g>
<defs>
<filter id="filter0_d" x="0.0999756" y="0.5" width="657.554" height="122" filterUnits="userSpaceOnUse" color-interpolation-filters="sRGB">
<feFlood flood-opacity="0" result="BackgroundImageFix"/>
<feColorMatrix in="SourceAlpha" type="matrix" values="0 0 0 0 0 0 0 0 0 0 0 0 0 0 0 0 0 0 127 0" result="hardAlpha"/>
<feOffset dy="7"/>
<feGaussianBlur stdDeviation="3.5"/>
<feComposite in2="hardAlpha" operator="out"/>
<feColorMatrix type="matrix" values="0 0 0 0 0 0 0 0 0 0 0 0 0 0 0 0 0 0 1 0"/>
<feBlend mode="normal" in2="BackgroundImageFix" result="effect1_dropShadow"/>
<feBlend mode="normal" in="SourceGraphic" in2="effect1_dropShadow" result="shape"/>
</filter>
</defs>
</svg>
