<svg width="492" height="158" viewBox="0 0 492 158" fill="none" xmlns="http://www.w3.org/2000/svg">
<g opacity="0.07" filter="url(#filter0_d)">
<path d="M7 1.99999L28.2 1.99999L38 109.6L38.4 109.6L48.8 1.99999L72.8 1.99999L83.2 109.6L83.6 109.6L93.4 1.99999L112.4 1.99999L98.2 142L70.8 142L60.8 47.6L60.4 47.6L50.4 142L21.2 142L7 1.99999ZM199.328 144C188.528 144 180.261 140.933 174.528 134.8C168.795 128.667 165.928 120 165.928 108.8L165.928 35.2C165.928 24 168.795 15.3333 174.528 9.19999C180.261 3.06666 188.528 -7.63962e-06 199.328 -7.64022e-06C210.128 -7.64082e-06 218.395 3.06666 224.128 9.19999C229.861 15.3333 232.728 24 232.728 35.2L232.728 108.8C232.728 120 229.861 128.667 224.128 134.8C218.395 140.933 210.128 144 199.328 144ZM199.328 124C206.928 124 210.728 119.4 210.728 110.2L210.728 33.8C210.728 24.6 206.928 20 199.328 20C191.728 20 187.928 24.6 187.928 33.8L187.928 110.2C187.928 119.4 191.728 124 199.328 124ZM291.606 1.99999L324.206 1.99999C335.54 1.99999 343.806 4.66666 349.006 9.99999C354.206 15.2 356.806 23.2667 356.806 34.2L356.806 42.8C356.806 57.3333 352.006 66.5333 342.406 70.4L342.406 70.8C347.74 72.4 351.473 75.6667 353.606 80.6C355.873 85.5333 357.006 92.1333 357.006 100.4L357.006 125C357.006 129 357.14 132.267 357.406 134.8C357.673 137.2 358.34 139.6 359.406 142L337.006 142C336.206 139.733 335.673 137.6 335.406 135.6C335.14 133.6 335.006 130 335.006 124.8L335.006 99.2C335.006 92.8 333.94 88.3333 331.806 85.8C329.806 83.2667 326.273 82 321.206 82L313.606 82L313.606 142L291.606 142L291.606 1.99999ZM321.606 62C326.006 62 329.273 60.8667 331.406 58.6C333.673 56.3333 334.806 52.5333 334.806 47.2L334.806 36.4C334.806 31.3333 333.873 27.6667 332.006 25.4C330.273 23.1333 327.473 22 323.606 22L313.606 22L313.606 62L321.606 62ZM416.27 1.99999L438.27 1.99999L438.27 61L466.27 1.99999L488.27 1.99999L462.07 53.4L488.67 142L465.67 142L447.07 79.6L438.27 97.4L438.27 142L416.27 142L416.27 1.99999Z" fill="#2F3133"/>
</g>
<defs>
<filter id="filter0_d" x="0" y="0" width="495.67" height="158" filterUnits="userSpaceOnUse" color-interpolation-filters="sRGB">
<feFlood flood-opacity="0" result="BackgroundImageFix"/>
<feColorMatrix in="SourceAlpha" type="matrix" values="0 0 0 0 0 0 0 0 0 0 0 0 0 0 0 0 0 0 127 0" result="hardAlpha"/>
<feOffset dy="7"/>
<feGaussianBlur stdDeviation="3.5"/>
<feComposite in2="hardAlpha" operator="out"/>
<feColorMatrix type="matrix" values="0 0 0 0 0 0 0 0 0 0 0 0 0 0 0 0 0 0 1 0"/>
<feBlend mode="normal" in2="BackgroundImageFix" result="effect1_dropShadow"/>
<feBlend mode="normal" in="SourceGraphic" in2="effect1_dropShadow" result="shape"/>
</filter>
</defs>
</svg>
